<svg width="508" height="508" viewBox="0 0 508 508" fill="none" xmlns="http://www.w3.org/2000/svg">
<g filter="url(#filter0_dd_2_172)">
<path d="M4 103C4 47.7715 48.7715 3 104 3H404C459.228 3 504 47.7715 504 103V403C504 458.228 459.228 503 404 503H104C48.7715 503 4 458.228 4 403V103Z" fill="#334155"/>
<path d="M358.406 273.711C358.406 285.951 357.299 297.604 355.086 308.672C352.872 319.609 349.682 329.766 345.516 339.141C341.089 348.516 335.62 357.109 329.109 364.922C322.599 372.734 315.177 379.245 306.844 384.453C299.292 389.01 290.958 392.526 281.844 395C272.859 397.604 263.159 398.906 252.742 398.906C241.674 398.906 231.453 397.474 222.078 394.609C212.703 391.745 204.174 387.708 196.492 382.5C188.94 377.031 182.169 370.456 176.18 362.773C170.19 354.961 165.177 346.172 161.141 336.406C157.495 327.422 154.695 317.656 152.742 307.109C150.919 296.562 150.008 285.43 150.008 273.711V232.305C150.008 219.805 151.049 207.956 153.133 196.758C155.346 185.56 158.536 175.208 162.703 165.703C166.74 156.719 171.622 148.581 177.352 141.289C183.211 133.997 189.917 127.747 197.469 122.539C204.891 117.461 213.224 113.555 222.469 110.82C231.714 108.086 241.74 106.719 252.547 106.719C263.484 106.719 273.706 108.151 283.211 111.016C292.846 113.75 301.505 117.721 309.188 122.93C316.87 127.878 323.576 133.867 329.305 140.898C335.164 147.93 340.177 155.677 344.344 164.141C348.901 173.776 352.352 184.323 354.695 195.781C357.169 207.24 358.406 219.414 358.406 232.305V273.711ZM302.742 231.914C302.742 224.622 302.352 217.721 301.57 211.211C300.919 204.57 299.812 198.451 298.25 192.852C296.297 185.82 293.693 179.57 290.438 174.102C287.182 168.503 283.341 163.945 278.914 160.43C275.398 157.826 271.427 155.807 267 154.375C262.703 152.943 257.885 152.227 252.547 152.227C247.469 152.227 242.846 152.878 238.68 154.18C234.643 155.482 230.997 157.37 227.742 159.844C223.315 163.49 219.539 168.047 216.414 173.516C213.419 178.984 211.076 185.365 209.383 192.656C208.081 198.255 207.104 204.375 206.453 211.016C205.932 217.656 205.672 224.622 205.672 231.914V273.711C205.672 280.612 205.932 287.253 206.453 293.633C206.974 300.013 207.885 305.938 209.188 311.406C210.62 318.307 212.703 324.622 215.438 330.352C218.302 335.951 221.622 340.508 225.398 344.023C228.914 347.148 232.885 349.557 237.312 351.25C241.87 352.943 247.013 353.789 252.742 353.789C258.211 353.789 263.224 353.008 267.781 351.445C272.339 349.883 276.375 347.604 279.891 344.609C284.318 340.964 288.029 336.406 291.023 330.938C294.148 325.339 296.622 319.023 298.445 311.992C299.878 306.523 300.919 300.534 301.57 294.023C302.352 287.513 302.742 280.742 302.742 273.711V231.914Z" fill="url(#paint0_linear_2_172)"/>
</g>
<defs>
<filter id="filter0_dd_2_172" x="0" y="0" width="508" height="508" filterUnits="userSpaceOnUse" color-interpolation-filters="sRGB">
<feFlood flood-opacity="0" result="BackgroundImageFix"/>
<feColorMatrix in="SourceAlpha" type="matrix" values="0 0 0 0 0 0 0 0 0 0 0 0 0 0 0 0 0 0 127 0" result="hardAlpha"/>
<feMorphology radius="1" operator="dilate" in="SourceAlpha" result="effect1_dropShadow_2_172"/>
<feOffset dy="1"/>
<feGaussianBlur stdDeviation="1.5"/>
<feColorMatrix type="matrix" values="0 0 0 0 0 0 0 0 0 0 0 0 0 0 0 0 0 0 0.15 0"/>
<feBlend mode="normal" in2="BackgroundImageFix" result="effect1_dropShadow_2_172"/>
<feColorMatrix in="SourceAlpha" type="matrix" values="0 0 0 0 0 0 0 0 0 0 0 0 0 0 0 0 0 0 127 0" result="hardAlpha"/>
<feOffset dy="1"/>
<feGaussianBlur stdDeviation="1"/>
<feColorMatrix type="matrix" values="0 0 0 0 0 0 0 0 0 0 0 0 0 0 0 0 0 0 0.3 0"/>
<feBlend mode="normal" in2="effect1_dropShadow_2_172" result="effect2_dropShadow_2_172"/>
<feBlend mode="normal" in="SourceGraphic" in2="effect2_dropShadow_2_172" result="shape"/>
</filter>
<linearGradient id="paint0_linear_2_172" x1="224.616" y1="199" x2="329.704" y2="284.678" gradientUnits="userSpaceOnUse">
<stop stop-color="#22D3EE"/>
<stop offset="0.5" stop-color="#60A5FA"/>
<stop offset="1" stop-color="#C084FC"/>
</linearGradient>
</defs>
</svg>
